inDegrees=no
num_controls=7
num_derivatives=13
num_iterations=180
num_multipliers=7
num_parameters=0
num_slacks=7
num_states=26
objective=5.279757
objective_accelerations=0.428564
objective_balance=0.003586
objective_effort=0.380443
objective_height=4.416093
objective_ligament=0.051070
solver_duration=1567.812992
status=Solve_Succeeded
success=true
DataType=double
version=3
OpenSimVersion=4.4-2022-07-23-0e9fedc
endheader
time	/jointset/ground_pelvis/pelvis_tilt/value	/jointset/ground_pelvis/pelvis_tx/value	/jointset/ground_pelvis/pelvis_ty/value	/jointset/hip_r/hip_flexion_r/value	/jointset/hip_r/hip_adduction_r/value	/jointset/hip_r/hip_rotation_r/value	/jointset/back/lumbar_extension/value	/jointset/patellofemoral_r/patellar_flexion_r/value	/jointset/knee_r/knee_flexion_r/value	/jointset/knee_r/knee_adduction_r/value	/jointset/knee_r/knee_rotation_r/value	/jointset/ankle_r/ankle_angle_r/value	/jointset/subtalar_r/subtalar_angle_r/value	/jointset/ground_pelvis/pelvis_tilt/speed	/jointset/ground_pelvis/pelvis_tx/speed	/jointset/ground_pelvis/pelvis_ty/speed	/jointset/hip_r/hip_flexion_r/speed	/jointset/hip_r/hip_adduction_r/speed	/jointset/hip_r/hip_rotation_r/speed	/jointset/back/lumbar_extension/speed	/jointset/patellofemoral_r/patellar_flexion_r/speed	/jointset/knee_r/knee_flexion_r/speed	/jointset/knee_r/knee_adduction_r/speed	/jointset/knee_r/knee_rotation_r/speed	/jointset/ankle_r/ankle_angle_r/speed	/jointset/subtalar_r/subtalar_angle_r/speed	/forceset/tau_hip_flexion_r	/forceset/tau_hip_adduction_r	/forceset/tau_hip_rotation_r	/forceset/tau_knee_flexion_r	/forceset/tau_ankle_angle_r	/forceset/tau_subtalar_angle_r	/forceset/tau_lumbar_extension	lambda_cid13_p0	lambda_cid14_p0	lambda_cid14_p1	lambda_cid14_p2	lambda_cid14_p3	lambda_cid14_p4	lambda_cid14_p5	/jointset/ground_pelvis/pelvis_tilt/accel	/jointset/ground_pelvis/pelvis_tx/accel	/jointset/ground_pelvis/pelvis_ty/accel	/jointset/hip_r/hip_flexion_r/accel	/jointset/hip_r/hip_adduction_r/accel	/jointset/hip_r/hip_rotation_r/accel	/jointset/back/lumbar_extension/accel	/jointset/patellofemoral_r/patellar_flexion_r/accel	/jointset/knee_r/knee_flexion_r/accel	/jointset/knee_r/knee_adduction_r/accel	/jointset/knee_r/knee_rotation_r/accel	/jointset/ankle_r/ankle_angle_r/accel	/jointset/subtalar_r/subtalar_angle_r/accel	gamma_cid13_p0	gamma_cid14_p0	gamma_cid14_p1	gamma_cid14_p2	gamma_cid14_p3	gamma_cid14_p4	gamma_cid14_p5
0.5	-0.07698614537147619	0.04987464268832872	0.8375316361445097	0.7271405639263344	-0.2486089232223554	-0.08216607086204882	-0.6315601874084986	0.859211000778497	0.8592110007784878	0.0603697951914384	0.17448272867505	0.2822605899368513	0.09404396311623894	-0.1957968705787732	-0.1634502006913854	-0.3714603296137282	1.422709233285119	-0.04530622627964358	0.4235252818014186	-0.7413370095319327	1.680215391328687	1.680215391328688	-0.1029919103405638	-0.0008307077238337904	0.5231190653055282	0.1032258405327179	-0.1587114660107968	-0.003436628162552053	0.03086078062613619	-0.284425014163927	-0.008319877601381717	-0.009239337866649284	0.2163556473499214	-13.01368080454131	-45.87820336905262	-9.694991250407195	-0.7173636651645905	-2.454303793186201	-647.3707041270808	64.45211252689542	0.1403972608556679	0.4416676748868785	-0.2958467013601342	-1.033129035361656	0.120740817959654	-0.1620902501767442	1.538757981718795	-1.1963904318741	-1.196390431874102	0.4582234343341619	-0.02068564387493711	-0.3520468176577332	0.1271683970378282	-5.428756862272574e-08	-1.299869701858545e-08	5.50238492554488e-07	-2.585087073864523e-07	-5.628003232343608e-08	-6.639399658981992e-08	4.013821859402378e-07
0.51	-0.07893682927681321	0.04826236785200803	0.8338030299271409	0.7413140579439861	-0.2490561434610651	-0.07793972013798682	-0.6388956745516438	0.8759509591954835	0.8759509591954843	0.05936302719579532	0.1744740931557054	0.2874732970167545	0.09508204373919207	-0.1943074052963807	-0.1589907292246172	-0.3741796154065561	1.411794208727393	-0.04413090117341096	0.4216955782052152	-0.7256717305348329	1.667546617017029	1.667546617017026	-0.09837424274125454	-0.000891716932600915	0.5193495967195696	0.10438061146339	-0.1636767803834928	-0.002693901391867757	0.03153115997868894	-0.2885617623285877	-0.009813611364677901	-0.008790509085619342	0.2212296570450802	-12.13773858597499	-46.56291139846906	-9.71748028350299	-0.6023777018983969	-2.310617159233791	-650.9520689780043	64.83051180610309	0.1580953200749868	0.4501807862579861	-0.2477868477113922	-1.149995155077752	0.1169699542025617	-0.2008739905319876	1.593716143178467	-1.336561998835081	-1.336561998835516	0.4617271911717011	0.001863249514563396	-0.400323875014837	0.1082389948102183	-4.820710488777388e-08	-5.480135416729214e-09	5.48092499986622e-07	-2.070698771163896e-07	-6.061907476239862e-08	-5.623684946394094e-08	3.923882656544187e-07
0.52	-0.08087164369770328	0.04669510651109205	0.8300496673859507	0.7553725405182343	-0.2494914021292661	-0.07373315916512389	-0.6460718482479243	0.8925573416557558	0.8925573416557638	0.05840207362986748	0.174464981906019	0.2926461240116081	0.09613139358219699	-0.1926229736882176	-0.1544475016104433	-0.3764115943780498	1.39970694460568	-0.04291391217727181	0.4195673315614216	-0.7094743201588056	1.653500199984439	1.653500199984433	-0.09382902440424853	-0.0009258537856805008	0.5151430482956127	0.1054796845431949	-0.1686420947562009	-0.001951174621197702	0.03220153933103816	-0.2926985104932529	-0.01130734512797624	-0.008341680304607307	0.2261036667402302	-11.26304563405705	-47.25108666583071	-9.738569420424424	-0.4899078021321194	-2.18228384513517	-654.5908570233266	65.23966237059462	0.1793905260099082	0.4584189043678852	-0.1983853370932905	-1.267576948159071	0.1290735959409473	-0.2217988596948121	1.645184257504319	-1.47191897606023	-1.471918976060244	0.4437335818735063	-0.01531117273739923	-0.4394627852575332	0.1160288268643462	-4.266838056920791e-08	1.317497721809807e-09	5.503253777382121e-07	-1.596050960871102e-07	-6.491834885619011e-08	-4.764929094156546e-08	3.890623969728903e-07
0.53	-0.08278867121351793	0.04517364258930414	0.8262764401441665	0.7693044317298419	-0.2499142457432759	-0.0695494776916369	-0.6530835048468225	0.9090165089776641	0.9090165089776512	0.05748597556221944	0.1744556524426049	0.2977747579991649	0.09719152294097173	-0.190751936778396	-0.1498362406794714	-0.3781504523279578	1.386485960223573	-0.04164769496438789	0.4171205149027464	-0.6927807450111774	1.638114736806174	1.638114736806166	-0.08940923607336183	-0.0009403054704330371	0.510514783701983	0.1065375912747121	-0.1734875557205827	-0.001285992337436083	0.03285972460881854	-0.2968418224549409	-0.01285464420087323	-0.00789746441605451	0.2308507409697405	-10.39209112627791	-47.95823516808453	-9.763311508500038	-0.378765581345363	-1.992964560531295	-658.214179536899	65.66411954016272	0.1955489178839039	0.4638225620217719	-0.1491344040814952	-1.377159791865505	0.1264789963207879	-0.263449387854978	1.692882334956066	-1.604631175491923	-1.604631175492217	0.4383780001482068	0.005437511336946121	-0.4848668830824313	0.0994526243121391	-3.907704710472847e-08	1.074289572563374e-08	6.260577183227119e-07	-1.034587992899109e-07	-7.769710343276864e-08	-4.325590700854715e-08	4.380427399548048e-07
0.54	-0.08468607063135621	0.04369855985173776	0.8224883246468552	0.7830985529758984	-0.2503242105426863	-0.06539172964852301	-0.6599259380559319	0.9253152674304373	0.9253152674304037	0.05661353068618769	0.1744461683978485	0.3028550376234533	0.09826198757266433	-0.1886973540919351	-0.1451712647661355	-0.3793892454835167	1.37215295149631	-0.04033814925713984	0.4143806454880281	-0.6756296422009783	1.621418426156617	1.621418426156608	-0.08509838608439252	-0.0009567700479396088	0.5054721756416819	0.1075467391268971	-0.1783330166849706	-0.0006208100537194185	0.03351790988646159	-0.3009851344166317	-0.01440194327378299	-0.007453248527571907	0.2355978151992518	-9.526861015325071	-48.66894535994482	-9.786586375048536	-0.270245788834979	-1.81942296948676	-661.8968413893106	66.11680861307124	0.2160996813378869	0.4691619008405984	-0.09837237822347958	-1.489981817190321	0.1377392948137774	-0.2804094109034335	1.736689790018495	-1.734088470318491	-1.734088470318494	0.4219459134900207	-0.01571375128819085	-0.5223314785919262	0.1062770509978598	-3.764027373413201e-08	2.307560804849634e-08	7.831086135308572e-07	-3.770742121756598e-08	-9.985741088392016e-08	-4.350288645098791e-08	5.448937852026565e-07
0.55	-0.08656198558626843	0.04227035203341906	0.8186903528376474	0.7967437983752175	-0.2507209156386294	-0.06126343507916253	-0.6665947988483523	0.9414405569107899	0.9414405569107602	0.05578325864503882	0.1744369536954994	0.3078828310372625	0.09934222320414013	-0.1864576254329358	-0.1404652085736489	-0.3801199153900503	1.356719091859383	-0.03899605010900826	0.4112209744583112	-0.6580818742455732	1.603429835277713	1.603429835277705	-0.08098674852934598	-0.0008856146363206365	0.5000214756486576	0.1084921648632977	-0.1829653682504693	2.981708479367795e-05	0.03415548319770729	-0.3052514709069212	-0.01580072724797375	-0.007096065948230227	0.2401431370816478	-8.674616444846285	-49.33729592898289	-9.848155111339535	-0.146583131286359	-1.628869241707218	-665.5385192554621	66.51477811331064	0.2321142755842058	0.4720686378174682	-0.04764287921960589	-1.596639487435819	0.133520443995182	-0.3424061533573179	1.772916604039218	-1.862682220699517	-1.862682220699356	0.4012799925477816	0.01864006758369582	-0.5662160928702595	0.08757782141452099	-3.477689788831112e-08	3.161068504857965e-08	8.665122630274749e-07	1.345200375294626e-08	-1.131147476942278e-07	-4.058442277413737e-08	6.039505692642914e-07
0.5600000000000001	-0.0884146622911145	0.04088935300889804	0.8148876286129043	0.8102293948880626	-0.2511039846992547	-0.05716846926098003	-0.6730863627000715	0.9573796729175484	0.957379672917529	0.05499320444264771	0.1744284725232844	0.3128541620845009	0.1004316935902699	-0.1840497040777916	-0.1357295060065988	-0.3803397285906096	1.340223174202779	-0.03761094219356029	0.4077148952545337	-0.6401702540606493	1.584183731437882	1.584183731437875	-0.07705481833286038	-0.0008100640168311467	0.4941797023271284	0.1093936900578308	-0.1875977198159908	0.0006804442232444178	0.0347930565089005	-0.3095178073972141	-0.01719951122218241	-0.006738883368990298	0.2446884589640319	-7.864125229993778	-50.00740076201831	-9.905193575463521	-0.02916832563617527	-1.459553428969989	-669.2150923718981	66.94199012094991	0.2497382205669925	0.4750911757531988	0.003798962971400965	-1.702393421125758	0.1463410482770722	-0.349691045715542	1.809460235922272	-1.985591062503851	-1.985591062503851	0.3860044417778283	-0.0148347097140853	-0.6005461442930422	0.09749694262431295	-3.020159907222094e-08	3.558859966132798e-08	8.615392176702623e-07	4.710108500125979e-08	-1.15688519735523e-07	-3.38674273541374e-08	6.056542399024678e-07
0.5700000000000001	-0.09024243535289535	0.03955581563024335	0.8110852651039892	0.8235448276435134	-0.2514730088711015	-0.05311043644056446	-0.6793971040900488	0.9731201693426261	0.9731201693426103	0.05424141914356175	0.1744208410924584	0.3177651662112182	0.1015299335290597	-0.1814764994294887	-0.1309768926781984	-0.3800469616062195	1.322692345411122	-0.03619126772758454	0.4038284538090052	-0.6219303194813139	1.563716604549414	1.563716604549405	-0.07333466418161709	-0.0007099103719091308	0.4879593405431489	0.1102399964577191	-0.19208519020446	0.00128843966619459	0.03539549678875594	-0.3137791265707244	-0.01864852030028187	-0.00641751697909526	0.2490735478812284	-7.099658277437825	-50.69451958006382	-9.979861391332266	0.09002384223272399	-1.226091771346458	-672.8284893561124	67.34251059667632	0.2653766970644605	0.4754845391849509	0.05491129049366733	-1.804077321190214	0.1402328207137343	-0.4176600960145859	1.838415737067005	-2.107110333491869	-2.107110333492192	0.3602709645685692	0.02342865899867582	-0.6420705000658116	0.07619458033647553	-2.559880140197692e-08	3.863807953701426e-08	8.427764916863101e-07	7.627284405285322e-08	-1.165225064362395e-07	-2.680725412961445e-08	5.986835001784303e-07
0.58	-0.09204362334617676	0.03826983201043284	0.8072884084097823	0.8366798221684405	-0.2518277458632965	-0.04909317591502613	-0.6855240150006077	0.9886500271325254	0.9886500271325179	0.05352588539854504	0.1744144088495392	0.3226121088591751	0.1026362359501808	-0.1787326903770711	-0.1262187542377625	-0.3792383656489669	1.304135528099289	-0.03475350626334709	0.3995604362817528	-0.6034041581768552	1.542056004402005	1.542056004401994	-0.06980450751952766	-0.0005702264308530237	0.4813674065745516	0.1110061865242207	-0.1965726605929543	0.001896435109074286	0.03599793706854214	-0.3180404457442391	-0.02009752937840168	-0.006096150589316702	0.2534586367984118	-6.381285467644391	-51.38357718680093	-10.04986493123532	0.2027568442247812	-1.013909001465618	-676.4799558759233	67.77053518626676	0.2838591013900242	0.4761961981602219	0.1069647575438788	-1.907591125160858	0.1499584479294326	-0.4260062620603079	1.866705580946986	-2.224285714291714	-2.224285714291699	0.3480049439470478	-0.006928650487272769	-0.6748605812166956	0.08147367594693694	-2.096019127050933e-08	4.047843510396859e-08	8.06055111862884e-07	9.961367187150874e-08	-1.150907261817837e-07	-1.930015167129425e-08	5.804158539361614e-07
